<svg
  xmlns="http://www.w3.org/2000/svg"
  width="125"
  height="125"
  viewBox="0 0 100 100"
  aria-labelledby="dice 2"
  role="img"
  className="dice-svg"
>
  <title id="dice 2">Dice 2</title>
  <g>
      <path d="M6.46115,13.379v73.2388a7.05794,7.05794,0,0,0,7.18726,6.92106H86.35159a7.05794,7.05794,0,0,0,7.18726-6.92106V13.379a7.05464,7.05464,0,0,0-7.18391-6.91784H13.64506A7.05464,7.05464,0,0,0,6.46115,13.379Z" style="fill: #faa218;stroke: #13213C;stroke-miterlimit: 10;stroke-width: 3px" />
      <path d="M33.80355,73.60773A9.14149,9.14149,0,0,1,24.503,82.57028a8.96559,8.96559,0,1,1,0-17.91865A9.14032,9.14032,0,0,1,33.80355,73.60773Z" style="fill: #13213C" />
      <path d="M83.76605,24.50881a9.30694,9.30694,0,0,1-18.60113,0,9.30719,9.30719,0,0,1,18.60113,0Z" style="fill: #13213C" />
  </g>
</svg>